<svg width="1211" height="348" viewBox="0 0 1211 348" fill="none" xmlns="http://www.w3.org/2000/svg">
<path d="M313.787 85.8049C311.474 83.3599 310.122 76.3604 310.122 76.3604C310.122 76.3604 308.769 83.3599 306.456 85.8049C304.144 88.2499 299.082 89.5444 299.082 89.5444C299.082 89.5444 304.1 90.8388 306.456 93.2838C308.769 95.7289 310.122 102.728 310.122 102.728C310.122 102.728 311.474 95.7289 313.787 93.2838C316.1 90.8388 321.161 89.5444 321.161 89.5444C321.161 89.5444 316.1 88.2979 313.787 85.8049Z" fill="#FCE444"/>
<path d="M993.666 235.096C991.353 232.651 990.001 225.651 990.001 225.651C990.001 225.651 988.648 232.651 986.335 235.096C984.023 237.541 978.961 238.835 978.961 238.835C978.961 238.835 983.979 240.13 986.335 242.575C988.648 245.02 990.001 252.019 990.001 252.019C990.001 252.019 991.353 245.02 993.666 242.575C995.979 240.13 1001.04 238.835 1001.04 238.835C1001.04 238.835 995.979 237.541 993.666 235.096Z" fill="#FCE444"/>
<path d="M364.986 285.445C362.674 283 361.321 276 361.321 276C361.321 276 359.968 283 357.656 285.445C355.343 287.89 350.281 289.184 350.281 289.184C350.281 289.184 355.299 290.478 357.656 292.923C359.968 295.368 361.321 302.368 361.321 302.368C361.321 302.368 362.674 295.368 364.986 292.923C367.299 290.478 372.361 289.184 372.361 289.184C372.361 289.184 367.343 287.89 364.986 285.445Z" fill="#FCE444"/>
<path d="M296.683 68.1623C295.331 66.7241 294.502 62.6011 294.502 62.6011C294.502 62.6011 293.716 66.7241 292.32 68.1623C290.967 69.6006 288 70.3677 288 70.3677C288 70.3677 290.967 71.1347 292.32 72.573C293.673 74.0112 294.502 78.1342 294.502 78.1342C294.502 78.1342 295.287 74.0112 296.683 72.573C298.036 71.1347 301.003 70.3677 301.003 70.3677C301.003 70.3677 298.036 69.6006 296.683 68.1623Z" fill="#FCE444"/>
<path d="M477.683 5.56132C476.331 4.12306 475.502 0 475.502 0C475.502 0 474.716 4.12306 473.32 5.56132C471.967 6.99958 469 7.76664 469 7.76664C469 7.76664 471.967 8.5337 473.32 9.97196C474.673 11.4102 475.502 15.5332 475.502 15.5332C475.502 15.5332 476.287 11.4102 477.683 9.97196C479.036 8.5337 482.003 7.76664 482.003 7.76664C482.003 7.76664 479.036 6.99958 477.683 5.56132Z" fill="#FCE444"/>
<path d="M1009.68 261.32C1008.33 259.882 1007.5 255.759 1007.5 255.759C1007.5 255.759 1006.71 259.882 1005.32 261.32C1003.96 262.758 1001 263.525 1001 263.525C1001 263.525 1003.96 264.292 1005.32 265.731C1006.67 267.169 1007.5 271.292 1007.5 271.292C1007.5 271.292 1008.28 267.169 1009.68 265.731C1011.03 264.292 1014 263.525 1014 263.525C1014 263.525 1011.03 262.758 1009.68 261.32Z" fill="#FCE444"/>
<path d="M960.921 44.2475C959.394 42.6174 958.521 38.015 958.521 38.015C958.521 38.015 957.648 42.6174 956.121 44.2475C954.594 45.8775 951.277 46.6925 951.277 46.6925C951.277 46.6925 954.594 47.5554 956.121 49.1375C957.648 50.7675 958.521 55.37 958.521 55.37C958.521 55.37 959.394 50.7675 960.921 49.1375C962.448 47.5075 965.764 46.6925 965.764 46.6925C965.764 46.6925 962.448 45.8295 960.921 44.2475Z" fill="#FCE444"/>
<path d="M756.643 331.232C755.116 329.602 754.243 325 754.243 325C754.243 325 753.371 329.602 751.843 331.232C750.316 332.862 747 333.677 747 333.677C747 333.677 750.316 334.54 751.843 336.122C753.371 337.753 754.243 342.355 754.243 342.355C754.243 342.355 755.116 337.753 756.643 336.122C758.171 334.492 761.487 333.677 761.487 333.677C761.487 333.677 758.171 332.815 756.643 331.232Z" fill="#FCE444"/>
<path d="M76 131H254C254 131 252.111 115.706 232.858 111.045C224.517 109.055 215.389 116.754 205.421 107.221C192.935 95.3321 194.037 80.8764 173.63 84.5951C151.491 88.628 162.561 119.268 138.166 112.878C120.487 108.269 109.418 103.817 90.2169 112.826C77.8886 118.639 76 131 76 131Z" fill="#3C21F7"/>
<path d="M398 343.248H519C519 343.248 517.706 332.842 504.657 329.661C498.995 328.313 492.794 333.543 486 327.073C477.534 318.986 478.235 309.119 464.377 311.653C449.333 314.403 456.828 335.269 440.275 330.901C428.25 327.774 420.755 324.701 407.706 330.847C399.294 334.837 398 343.248 398 343.248Z" fill="#3C21F7"/>
<path d="M1054 347.481H1210.67C1210.67 347.481 1209.03 333.986 1192.07 329.879C1184.76 328.119 1176.68 334.886 1167.92 326.515C1156.95 315.993 1157.88 303.241 1139.95 306.526C1120.46 310.086 1130.18 337.116 1108.77 331.483C1093.23 327.415 1083.5 323.464 1066.58 331.444C1055.68 336.607 1054 347.481 1054 347.481Z" fill="#3C21F7"/>
<path d="M895 164.434H1085.46C1085.46 164.434 1083.43 148.005 1062.84 143.038C1053.93 140.886 1044.16 149.14 1033.46 138.93C1020.1 126.139 1021.27 110.649 999.47 114.639C975.755 118.981 987.593 151.8 961.534 144.993C942.625 140.065 930.787 135.253 910.237 144.954C897.032 151.213 895 164.434 895 164.434Z" fill="#3C21F7"/>
<path d="M1189.2 278.093C1189.2 280.914 1186.92 283.186 1184.1 283.186C1181.28 283.186 1179 280.914 1179 278.093C1179 275.272 1181.28 273 1184.1 273C1186.92 273 1189.2 275.272 1189.2 278.093Z" fill="#6046AB"/>
<path d="M209.2 208.093C209.2 210.914 206.924 213.186 204.1 213.186C201.275 213.186 199 210.914 199 208.093C199 205.272 201.275 203 204.1 203C206.924 203 209.2 205.312 209.2 208.093Z" fill="#6046AB"/>
<path d="M1189.2 119.093C1189.2 121.914 1186.92 124.186 1184.1 124.186C1181.28 124.186 1179 121.914 1179 119.093C1179 116.272 1181.28 114 1184.1 114C1186.92 114 1189.2 116.272 1189.2 119.093Z" fill="#6046AB"/>
<path d="M958.383 80.2859C958.383 83.1068 956.108 85.3791 953.284 85.3791C950.459 85.3791 948.184 83.1068 948.184 80.2859C948.184 77.4651 950.459 75.1927 953.284 75.1927C956.108 75.1927 958.383 77.4651 958.383 80.2859Z" fill="#6046AB"/>
<path d="M860.924 340.109C860.924 342.93 858.649 345.202 855.825 345.202C853 345.202 850.725 342.93 850.725 340.109C850.725 337.288 853 335.016 855.825 335.016C858.649 335.016 860.924 337.327 860.924 340.109Z" fill="#6046AB"/>
<path d="M92.6691 331.33C92.6691 333.172 91.1784 334.66 89.3346 334.66C87.4907 334.66 86 333.172 86 331.33C86 329.489 87.4907 328 89.3346 328C91.1784 328 92.6691 329.489 92.6691 331.33Z" fill="#6046AB"/>
<path d="M267.378 337.93C269.219 337.918 270.703 336.417 270.691 334.578C270.679 332.739 269.176 331.258 267.335 331.27C265.493 331.282 264.01 332.782 264.022 334.621C264.034 336.461 265.536 337.942 267.378 337.93Z" fill="#6046AB"/>
<path d="M191.669 226.33C191.669 228.172 190.178 229.66 188.335 229.66C186.491 229.66 185 228.172 185 226.33C185 224.489 186.491 223 188.335 223C190.178 223 191.669 224.489 191.669 226.33Z" fill="#6046AB"/>
<path d="M816.669 5.33092C816.669 7.17231 815.178 8.66109 813.335 8.66109C811.491 8.66109 810 7.17231 810 5.33092C810 3.48954 811.491 2.00076 813.335 2.00076C815.178 1.96158 816.669 3.45036 816.669 5.33092Z" fill="#6046AB"/>
<path d="M75.6691 8.33016C75.6691 10.1715 74.1784 11.6603 72.3346 11.6603C70.4907 11.6603 69 10.1715 69 8.33016C69 6.48878 70.4907 5 72.3346 5C74.1391 5 75.6691 6.48878 75.6691 8.33016Z" fill="#6046AB"/>
<path d="M6.66911 178.331C6.66911 180.172 5.17837 181.661 3.33456 181.661C1.49074 181.661 0 180.172 0 178.331C0 176.49 1.49074 175.001 3.33456 175.001C5.17837 174.962 6.66911 176.49 6.66911 178.331Z" fill="#6046AB"/>
<path d="M302.335 318.908C304.176 318.908 305.669 317.418 305.669 315.578C305.669 313.739 304.176 312.248 302.335 312.248C300.493 312.248 299 313.739 299 315.578C299 317.418 300.493 318.908 302.335 318.908Z" fill="#6046AB"/>
<path d="M968.11 315.121C968.11 316.963 966.62 318.451 964.776 318.451C962.932 318.451 961.441 316.963 961.441 315.121C961.441 313.28 962.932 311.791 964.776 311.791C966.62 311.791 968.11 313.28 968.11 315.121Z" fill="#6046AB"/>
<path d="M504.226 219.049H468.39V265H431.976V219.049H321V193.039L420.705 62.7001H460.876L366.951 187.259H433.132V146.51H468.39V187.259H504.226V219.049Z" fill="#6046AB"/>
<path d="M604.425 267.89C588.241 267.89 573.791 263.844 561.075 255.752C548.359 247.467 538.341 235.522 531.019 219.916C523.698 204.117 520.037 185.429 520.037 163.85C520.037 142.271 523.698 123.679 531.019 108.073C538.341 92.2744 548.359 80.3291 561.075 72.2371C573.791 63.9524 588.241 59.8101 604.425 59.8101C620.609 59.8101 635.059 63.9524 647.775 72.2371C660.684 80.3291 670.799 92.2744 678.12 108.073C685.442 123.679 689.102 142.271 689.102 163.85C689.102 185.429 685.442 204.117 678.12 219.916C670.799 235.522 660.684 247.467 647.775 255.752C635.059 263.844 620.609 267.89 604.425 267.89ZM604.425 235.233C618.875 235.233 630.243 229.26 638.527 217.315C647.005 205.37 651.243 187.548 651.243 163.85C651.243 140.152 647.005 122.33 638.527 110.385C630.243 98.4397 618.875 92.4671 604.425 92.4671C590.168 92.4671 578.801 98.4397 570.323 110.385C562.039 122.33 557.896 140.152 557.896 163.85C557.896 187.548 562.039 205.37 570.323 217.315C578.801 229.26 590.168 235.233 604.425 235.233Z" fill="#6046AB"/>
<path d="M894.828 219.049H858.992V265H822.578V219.049H711.602V193.039L811.307 62.7001H851.478L757.553 187.259H823.734V146.51H858.992V187.259H894.828V219.049Z" fill="#6046AB"/>
<path fill-rule="evenodd" clip-rule="evenodd" d="M560.647 62.9142C590.149 41.4529 631.224 42.968 658.395 68.6652C663.989 73.9106 668.879 80.0596 672.858 86.9011L672.858 86.9016C679.344 98.0604 683.518 111.476 682.528 124.921C682.028 131.702 679.963 138.139 677.244 144.135L677.241 144.141C664.091 172.902 635.541 185.863 606.174 189.724C593.394 191.409 578.877 189.303 566.252 183.925C553.64 178.552 542.688 169.81 537.375 158.034L537.374 158.032C530.474 142.698 527.782 122.577 532.645 106.082C537.766 88.6451 546.546 73.138 560.647 62.9142ZM655.648 71.5735C629.937 47.254 591.012 45.7711 562.999 66.1498L562.996 66.1517C549.84 75.6902 541.448 90.3029 536.483 107.21L536.482 107.212C531.942 122.61 534.429 141.74 541.022 156.39C545.794 166.966 555.797 175.123 567.82 180.245C579.829 185.361 593.627 187.344 605.652 185.758L605.652 185.758C634.344 181.986 661.263 169.462 673.601 142.482C676.197 136.758 678.084 130.793 678.538 124.627C679.456 112.176 675.589 99.5596 669.4 88.9117C665.611 82.3983 660.962 76.5551 655.655 71.5796L655.648 71.5735Z" fill="white"/>
<path fill-rule="evenodd" clip-rule="evenodd" d="M559.044 78.1117C559.938 78.7613 560.135 80.0122 559.486 80.9055C555.722 86.0808 552.29 91.5308 549.191 97.1219C548.656 98.088 547.438 98.4371 546.472 97.9017C545.506 97.3662 545.157 96.149 545.692 95.1829C548.863 89.4616 552.382 83.872 556.251 78.5528C556.9 77.6595 558.151 77.462 559.044 78.1117Z" fill="white"/>
<path fill-rule="evenodd" clip-rule="evenodd" d="M567.154 70.6572C567.648 71.6451 567.248 72.8465 566.26 73.3404C565.557 73.6921 564.916 74.3323 564.565 75.0356C564.071 76.0235 562.869 76.424 561.881 75.93C560.893 75.436 560.493 74.2347 560.987 73.2467C561.726 71.7693 562.994 70.5014 564.471 69.7627C565.459 69.2688 566.66 69.6692 567.154 70.6572Z" fill="white"/>
<path fill-rule="evenodd" clip-rule="evenodd" d="M539.016 130.951C540.121 130.964 541.006 131.869 540.994 132.973C540.866 144.486 547.536 155.181 555.202 164.678C555.896 165.537 555.761 166.796 554.902 167.49C554.042 168.184 552.783 168.05 552.089 167.19C544.354 157.606 536.85 145.949 536.994 132.929C537.007 131.824 537.912 130.939 539.016 130.951Z" fill="white"/>
<path fill-rule="evenodd" clip-rule="evenodd" d="M662.318 85.9483C663.211 85.2987 664.462 85.4962 665.112 86.3895C665.349 86.7155 665.606 87.0335 665.901 87.3978L665.914 87.4144C666.195 87.7615 666.512 88.1533 666.815 88.5701C667.465 89.4635 667.268 90.7143 666.374 91.364C665.481 92.0136 664.23 91.8161 663.58 90.9228C663.343 90.5968 663.087 90.2788 662.792 89.9145L662.778 89.8979C662.497 89.5508 662.18 89.159 661.877 88.7422C661.227 87.8489 661.425 86.598 662.318 85.9483Z" fill="white"/>
<path fill-rule="evenodd" clip-rule="evenodd" d="M669.132 98.5482C670.18 98.1989 671.312 98.7653 671.662 99.8132C675.742 112.054 676.025 125.488 672.364 137.879C672.051 138.939 670.938 139.544 669.879 139.231C668.82 138.918 668.215 137.805 668.528 136.746C671.954 125.15 671.692 112.552 667.867 101.078C667.518 100.03 668.084 98.8975 669.132 98.5482Z" fill="white"/>
<path fill-rule="evenodd" clip-rule="evenodd" d="M680.107 143.289C681.683 144.567 682.927 146.464 683.665 148.173L683.673 148.191C688.683 160.118 689.578 173.464 687.342 186.113C685.104 198.768 679.802 210.596 673.025 221.315L673.02 221.322C672.106 222.755 671.183 224.149 670.268 225.53C668.581 228.077 666.922 230.58 665.408 233.199C663.105 237.181 661.283 241.199 660.489 245.484C659.727 249.615 659.954 253.857 660.467 258.298C660.627 259.682 660.818 261.104 661.012 262.549C661.425 265.626 661.852 268.801 662.018 271.908C662.084 272.769 662.183 274.395 661.107 275.74L661.093 275.757C659.88 277.239 657.998 277.376 657.128 277.438C651.133 278.051 645.139 278.595 639.157 279.139L639.146 279.14L639.131 279.142L639.106 279.144C638.718 279.176 638.161 279.222 637.596 279.187C637.024 279.151 636.31 279.027 635.618 278.63C634.536 278.064 633.948 277.136 633.617 276.34C633.291 275.555 633.142 274.718 633.043 274.157C633.039 274.134 633.035 274.11 633.032 274.087C632.931 273.367 632.841 272.666 632.752 271.981C632.403 269.267 632.086 266.806 631.279 264.436C630.309 261.585 628.402 259.219 625.992 258.396C624.084 257.762 621.925 258.052 619.323 258.474C617.288 258.813 615.312 259.197 613.571 259.854C611.848 260.504 610.49 261.372 609.568 262.593C608.454 264.141 608.034 266.181 607.539 268.727C607.336 269.845 607.132 270.98 606.929 272.118C606.726 273.246 606.524 274.378 606.321 275.494C606.243 276.03 606.112 276.696 605.847 277.339C605.576 277.996 605.109 278.767 604.28 279.301C603.053 280.11 601.687 280.029 600.915 279.96C597.551 279.722 594.203 279.484 590.856 279.246L590.848 279.246C587.494 279.007 584.141 278.769 580.771 278.531C579.704 278.46 578.33 278.309 577.05 277.76C577.03 277.752 577.01 277.743 576.99 277.733C574.682 276.653 573.531 274.622 572.915 272.663C572.346 270.855 572.149 268.836 571.992 267.21C571.982 267.111 571.972 267.013 571.963 266.917L571.963 266.914C571.038 257.319 566.205 250.621 560.1 244.265C558.304 242.395 556.487 240.641 554.63 238.849C553.247 237.513 551.842 236.157 550.409 234.717C547.14 231.433 543.94 227.916 541.276 223.867L541.273 223.863C530.466 207.338 525.58 187.21 530.514 167.826L530.521 167.799C530.992 166.05 531.626 163.863 533.109 162.117C534.623 160.336 537.578 158.914 540.305 160.163C541.309 160.624 541.75 161.811 541.29 162.815C540.829 163.819 539.642 164.26 538.638 163.8C538.094 163.55 536.96 163.763 536.157 164.708C535.326 165.686 534.869 167.038 534.387 168.826C529.787 186.916 534.304 205.898 544.619 221.67C547.066 225.39 550.05 228.686 553.244 231.895C554.54 233.197 555.912 234.524 557.296 235.861C559.228 237.729 561.183 239.618 562.985 241.494C569.333 248.103 574.892 255.612 575.944 266.528C575.944 266.529 575.944 266.53 575.944 266.53L575.959 266.68C576.13 268.426 576.29 270.065 576.73 271.463C577.165 272.845 577.777 273.673 578.656 274.097C579.28 274.357 580.076 274.476 581.037 274.54L581.045 274.54C584.416 274.779 587.77 275.017 591.124 275.255L591.132 275.256L591.25 275.264C594.567 275.5 597.884 275.736 601.217 275.971C601.225 275.972 601.233 275.972 601.241 275.973L601.257 275.974C601.588 276.005 601.798 276.006 601.947 275.989C602.021 275.98 602.059 275.969 602.075 275.962C602.09 275.94 602.115 275.895 602.148 275.816C602.234 275.606 602.308 275.301 602.367 274.889C602.369 274.874 602.371 274.858 602.374 274.843C602.376 274.833 602.377 274.824 602.379 274.814C602.583 273.693 602.787 272.554 602.991 271.412L602.992 271.411C603.196 270.27 603.401 269.127 603.606 268L603.61 267.976C603.626 267.893 603.642 267.81 603.658 267.726C604.105 265.419 604.661 262.55 606.339 260.234L606.358 260.207C607.89 258.164 610.004 256.924 612.159 256.111C614.301 255.303 616.617 254.869 618.669 254.527L618.678 254.526L618.753 254.514C621.178 254.12 624.297 253.614 627.263 254.603L627.275 254.607C631.268 255.966 633.856 259.595 635.066 263.147C636.015 265.936 636.394 268.899 636.745 271.649C636.825 272.278 636.904 272.895 636.988 273.496C637.091 274.076 637.179 274.489 637.311 274.805C637.372 274.951 637.423 275.028 637.452 275.063C637.465 275.079 637.472 275.086 637.473 275.087L637.474 275.087C637.517 275.109 637.56 275.132 637.601 275.157C637.614 275.161 637.681 275.185 637.846 275.195C638.085 275.21 638.365 275.191 638.79 275.156C644.787 274.611 650.77 274.067 656.752 273.455C656.772 273.453 656.793 273.451 656.813 273.45C657.272 273.417 657.576 273.376 657.8 273.309C657.916 273.274 657.97 273.243 657.991 273.228C657.993 273.225 657.995 273.22 657.997 273.214C658.006 273.191 658.021 273.143 658.034 273.058C658.061 272.867 658.06 272.606 658.028 272.191C658.027 272.175 658.026 272.159 658.025 272.143C657.868 269.188 657.477 266.284 657.075 263.293C656.875 261.808 656.672 260.302 656.493 258.757C655.967 254.203 655.683 249.484 656.556 244.757L656.556 244.756C657.466 239.841 659.529 235.374 661.945 231.196C663.515 228.482 665.299 225.788 667.032 223.17C667.929 221.815 668.812 220.481 669.646 219.175C676.224 208.769 681.279 197.429 683.403 185.416C685.527 173.4 684.651 160.854 679.989 149.749C679.432 148.463 678.531 147.161 677.588 146.396C676.652 145.638 676.129 145.701 675.752 145.921C674.799 146.479 673.574 146.159 673.016 145.206C672.458 144.252 672.778 143.027 673.731 142.469C676.148 141.054 678.521 142.004 680.107 143.289Z" fill="white"/>
<path fill-rule="evenodd" clip-rule="evenodd" d="M597.306 266.767C591.907 265.582 586.367 265.185 580.817 265.516L580.789 265.517C579.304 265.585 578.096 265.718 577.06 266.211C577.036 266.222 577.012 266.233 576.988 266.243C576.009 266.663 575.404 267.465 575.32 268.083C575.171 269.177 574.162 269.943 573.068 269.794C571.973 269.645 571.207 268.637 571.356 267.542C571.679 265.177 573.505 263.397 575.375 262.583C577.186 261.731 579.092 261.59 580.593 261.522C586.487 261.172 592.391 261.593 598.163 262.86C599.242 263.097 599.925 264.164 599.688 265.243C599.451 266.322 598.385 267.004 597.306 266.767Z" fill="white"/>
<path fill-rule="evenodd" clip-rule="evenodd" d="M644.215 259.525C649.063 257.782 654.58 258.005 659.218 260.134C660.222 260.595 660.663 261.782 660.202 262.786C659.741 263.79 658.554 264.23 657.55 263.77C653.874 262.082 649.442 261.897 645.568 263.289C644.528 263.663 643.383 263.123 643.009 262.083C642.635 261.044 643.175 259.898 644.215 259.525Z" fill="white"/>
<path fill-rule="evenodd" clip-rule="evenodd" d="M722.21 112.045C723.019 112.797 723.065 114.063 722.313 114.872C716.958 120.635 711.96 126.712 706.919 132.842C705.415 134.67 703.907 136.504 702.384 138.335C695.788 146.269 688.957 154.113 681.16 161.07C680.336 161.805 679.072 161.733 678.336 160.909C677.601 160.085 677.673 158.821 678.497 158.085C686.061 151.336 692.737 143.682 699.308 135.778C700.8 133.984 702.288 132.175 703.78 130.361C708.835 124.214 713.937 118.009 719.383 112.149C720.135 111.34 721.401 111.293 722.21 112.045Z" fill="white"/>
<path fill-rule="evenodd" clip-rule="evenodd" d="M487.559 126.686C487.978 125.664 489.146 125.174 490.168 125.593C493.262 126.86 496.337 129.379 498.527 131.509L498.532 131.513L498.532 131.513C507.284 140.08 516.008 148.673 524.72 157.255C529.69 162.149 534.656 167.04 539.62 171.921C540.408 172.695 540.419 173.961 539.645 174.749C538.871 175.537 537.604 175.548 536.816 174.773C531.845 169.887 526.877 164.993 521.907 160.097C513.199 151.52 504.484 142.937 495.736 134.374C493.666 132.361 491.032 130.27 488.652 129.295C487.63 128.876 487.14 127.708 487.559 126.686Z" fill="white"/>
<path fill-rule="evenodd" clip-rule="evenodd" d="M497.8 123.25C498.903 123.316 499.743 124.263 499.677 125.366C499.511 128.164 499.411 130.389 499.719 132.843C499.857 133.939 499.08 134.939 497.984 135.076C496.888 135.213 495.888 134.436 495.75 133.34C495.392 130.481 495.518 127.923 495.685 125.128C495.75 124.025 496.697 123.185 497.8 123.25Z" fill="white"/>
<path fill-rule="evenodd" clip-rule="evenodd" d="M499.04 134.256C498.954 135.357 497.991 136.18 496.89 136.094C495.01 135.947 493.116 135.78 491.234 135.615L491.229 135.615C489.341 135.449 487.465 135.284 485.605 135.139C484.504 135.053 483.681 134.09 483.767 132.989C483.854 131.888 484.816 131.065 485.917 131.151C487.798 131.298 489.691 131.464 491.574 131.63L491.579 131.63C493.466 131.796 495.342 131.96 497.202 132.106C498.304 132.192 499.126 133.155 499.04 134.256Z" fill="white"/>
<path fill-rule="evenodd" clip-rule="evenodd" d="M497.978 132.919C498.744 133.714 498.721 134.98 497.926 135.747C495.883 137.716 494.336 139.475 492.383 142.144C491.73 143.035 490.479 143.229 489.587 142.576C488.696 141.924 488.503 140.672 489.155 139.781C491.237 136.938 492.933 135.004 495.15 132.867C495.945 132.1 497.211 132.124 497.978 132.919Z" fill="white"/>
<path fill-rule="evenodd" clip-rule="evenodd" d="M711.835 108.606C712.937 108.527 713.894 109.356 713.974 110.457C714.206 113.696 714.73 116.92 715.663 119.945C715.988 121 715.397 122.12 714.341 122.445C713.286 122.771 712.166 122.179 711.84 121.124C710.799 117.745 710.233 114.212 709.984 110.744C709.905 109.642 710.734 108.685 711.835 108.606Z" fill="white"/>
<path fill-rule="evenodd" clip-rule="evenodd" d="M712.597 121.345C712.611 120.24 713.518 119.356 714.622 119.371C718.524 119.421 722.486 119.445 726.358 119.432C727.463 119.428 728.362 120.321 728.365 121.425C728.369 122.53 727.477 123.428 726.372 123.432C722.474 123.445 718.49 123.421 714.571 123.37C713.467 123.356 712.583 122.449 712.597 121.345Z" fill="white"/>
<path fill-rule="evenodd" clip-rule="evenodd" d="M713.143 121.507C714.004 120.814 715.263 120.951 715.955 121.811C718.099 124.474 720.431 127.067 722.839 129.486C723.618 130.269 723.615 131.536 722.832 132.315C722.049 133.094 720.783 133.091 720.004 132.308C717.501 129.793 715.075 127.097 712.839 124.319C712.147 123.459 712.283 122.2 713.143 121.507Z" fill="white"/>
<path fill-rule="evenodd" clip-rule="evenodd" d="M604.141 193.646C605.245 193.646 606.141 194.541 606.141 195.646C606.141 213.842 609.902 232.111 617.02 248.834C617.453 249.85 616.98 251.025 615.964 251.458C614.947 251.89 613.773 251.417 613.34 250.401C606.012 233.187 602.141 214.385 602.141 195.646C602.141 194.541 603.036 193.646 604.141 193.646Z" fill="white"/>
<path d="M588.128 125.183C587.446 123.275 586.083 122.116 583.766 122.934C579.269 124.433 580.154 131.043 581.381 134.451C581.858 135.677 582.608 136.836 583.766 137.517C585.947 138.812 587.582 136.495 588.196 134.655C588.809 132.815 589.218 128.113 588.128 125.183Z" fill="#734A4A"/>
<path d="M617.703 124.16C617.635 124.092 617.635 124.024 617.567 123.956C615.795 121.435 612.251 122.661 611.093 125.046C609.934 127.363 610.139 130.089 610.139 132.611C610.139 134.178 609.934 136.154 611.229 137.313C613.478 139.289 616.272 136.836 616.954 134.655C617.703 132.202 618.385 129.68 618.385 127.091C618.385 126.068 618.248 125.046 617.703 124.16Z" fill="#734A4A"/>
<path d="M607.481 154.485C608.162 154.349 608.844 154.145 609.457 153.94C611.161 153.463 613.546 151.555 615.386 152.1C617.157 152.577 616.885 153.804 616.612 155.167C616.272 157.007 613.955 160.891 612.319 162.322C608.571 165.593 606.186 166.752 600.802 166.411C594.737 166.002 589.081 162.458 584.856 158.37C583.698 157.211 579.745 153.122 582.607 152.168C584.584 151.487 587.309 153.054 589.149 153.668C593.511 155.099 598.145 155.576 602.711 155.235C604.278 155.03 605.913 154.826 607.481 154.485Z" fill="#734A4A"/>
</svg>
