<svg width="20" height="20" viewBox="0 0 20 20" fill="none" xmlns="http://www.w3.org/2000/svg">
<path d="M15.2498 8.95841C15.2498 12.4332 12.433 15.2501 8.95817 15.2501V17.2501C13.5375 17.2501 17.2498 13.5378 17.2498 8.95841H15.2498ZM8.95817 15.2501C5.48338 15.2501 2.6665 12.4332 2.6665 8.95841H0.666504C0.666504 13.5378 4.37881 17.2501 8.95817 17.2501V15.2501ZM2.6665 8.95841C2.6665 5.48362 5.48338 2.66675 8.95817 2.66675V0.666748C4.37881 0.666748 0.666504 4.37905 0.666504 8.95841H2.6665ZM8.95817 2.66675C12.433 2.66675 15.2498 5.48362 15.2498 8.95841H17.2498C17.2498 4.37905 13.5375 0.666748 8.95817 0.666748V2.66675Z" fill="#3C21F7"/>
<path d="M18.3333 18.3333L15 15" stroke="#3C21F7" stroke-width="2" stroke-linecap="round"/>
</svg>
