<svg width="22" height="22" viewBox="0 0 22 22" fill="none" xmlns="http://www.w3.org/2000/svg">
<path d="M10.5625 0C4.7385 0 0 4.7385 0 10.5625C0 16.3865 4.7385 21.125 10.5625 21.125C16.3865 21.125 21.125 16.3865 21.125 10.5625C21.125 4.7385 16.3865 0 10.5625 0ZM10.5625 1.625C15.5082 1.625 19.5 5.61681 19.5 10.5625C19.5 15.5082 15.5082 19.5 10.5625 19.5C5.61681 19.5 1.625 15.5082 1.625 10.5625C1.625 5.61681 5.61681 1.625 10.5625 1.625ZM7.49125 6.32125L6.32125 7.49125L9.39575 10.5625L6.32287 13.6338L7.49288 14.8037L10.5625 11.7301L13.6338 14.8013L14.8037 13.6338L11.7301 10.5625L14.8013 7.49125L13.6338 6.32125L10.5625 9.39575L7.49125 6.32287V6.32125Z" fill="white"/>
</svg>
