<svg width="13" height="10" viewBox="0 0 13 10" fill="none" xmlns="http://www.w3.org/2000/svg">
<path d="M12.4232 0.243358C12.5009 0.320768 12.5624 0.412727 12.6044 0.513969C12.6464 0.615211 12.6681 0.723746 12.6681 0.833358C12.6681 0.94297 12.6464 1.05151 12.6044 1.15275C12.5624 1.25399 12.5009 1.34595 12.4232 1.42336L4.92325 8.92336C4.84584 9.00096 4.75388 9.06253 4.65264 9.10454C4.55139 9.14656 4.44286 9.16818 4.33325 9.16818C4.22363 9.16818 4.1151 9.14656 4.01386 9.10454C3.91262 9.06253 3.82066 9.00096 3.74325 8.92336L0.409913 5.59002C0.253435 5.43355 0.165527 5.22132 0.165527 5.00002C0.165527 4.77873 0.253435 4.5665 0.409913 4.41002C0.566391 4.25355 0.77862 4.16564 0.999913 4.16564C1.22121 4.16564 1.43344 4.25355 1.58991 4.41002L4.33325 7.15502L11.2432 0.243358C11.3207 0.165753 11.4126 0.104181 11.5139 0.0621707C11.6151 0.0201599 11.7236 -0.00146484 11.8332 -0.00146484C11.9429 -0.00146484 12.0514 0.0201599 12.1526 0.0621707C12.2539 0.104181 12.3458 0.165753 12.4232 0.243358Z" fill="white"/>
</svg>
